<svg viewBox="0 0 82.9025 81.6519" xmlns="http://www.w3.org/2000/svg" xmlns:xlink="http://www.w3.org/1999/xlink" width="82.902466" height="81.651855" fill="none">
	<rect id="fi_15371027" width="82.902473" height="81.651787" x="0.000000" y="0.000000" fill="rgb(255,255,255)" fill-opacity="0" />
	<g id="Group">
		<path id="Vector" d="M68.1729 32.6515L52.6691 29.1058L57.2526 9.66442C57.8593 7.09064 60.4697 5.48854 63.0829 6.08626L69.1232 7.46748C71.7364 8.06504 73.363 10.6361 72.7561 13.2099L68.1729 32.6515Z" fill="rgb(255,255,255)" fill-rule="nonzero" />
		<path id="Vector" d="M14.7296 32.6516L30.2333 29.106L25.65 9.66442C25.0433 7.09064 22.4329 5.48854 19.8197 6.08626L13.7793 7.46764C11.1661 8.0652 9.53944 10.6363 10.1463 13.2101L14.7296 32.6516Z" fill="rgb(255,255,255)" fill-rule="nonzero" />
		<path id="Vector" d="M47.7322 4.94838L35.1702 4.94838L36.4264 -0.000488281L46.4761 -0.000488281L47.7322 4.94838Z" fill="rgb(255,255,255)" fill-rule="nonzero" />
		<path id="Vector" d="M36.4269 14.8453L31.4026 14.8453L31.4026 4.80261C31.4024 2.14989 33.5857 -0.000488281 36.2791 -0.000488281L36.4269 -0.000488281L36.4269 14.8453Z" fill="rgb(255,255,255)" fill-rule="nonzero" />
		<path id="Vector" d="M51.5001 14.8453L46.4757 14.8453L46.4757 -0.000488281L46.6236 -0.000488281C49.3169 -0.000488281 51.5002 2.14989 51.5002 4.80261L51.5002 14.8453L51.5001 14.8453Z" fill="rgb(255,255,255)" fill-rule="nonzero" />
		<path id="Vector" d="M70.3421 32.0876L70.3421 61.857L12.5604 61.857L12.5604 32.0876C12.5604 30.2128 12.8256 28.3989 13.3227 26.6818L20.2643 23.1459L26.5053 13.2956C28.0634 12.806 29.7034 12.5003 31.4017 12.4051L31.4034 12.4051L34.1777 13.4139L36.4264 12.3706L50.3229 12.3706C61.3786 12.3704 70.3421 21.1989 70.3421 32.0876Z" fill="rgb(254,163,1)" fill-rule="nonzero" />
		<path id="Vector" d="M40.0733 12.3706C36.8469 13.9678 29.0678 18.9281 29.0678 29.6345L29.0678 61.8572L12.5604 61.8572L12.5604 32.0878C12.5604 21.199 21.5239 12.3706 32.5795 12.3706L40.0733 12.3706Z" fill="rgb(254,163,1)" fill-rule="nonzero" />
		<path id="Vector" d="M72.8544 59.3628L72.8544 71.7927C72.8544 77.2379 68.3719 81.6512 62.8449 81.6512L20.0575 81.6512C14.5306 81.6512 10.048 77.2379 10.048 71.7927L10.048 59.3628C10.048 57.8692 10.7237 56.5302 11.7896 55.6281C12.6655 54.8838 13.8065 54.4336 15.0528 54.4336L67.8498 54.4336C70.6123 54.4336 72.8544 56.6403 72.8544 59.3628Z" fill="rgb(254,163,1)" fill-rule="nonzero" />
		<path id="Vector" d="M29.2063 81.6516L20.0575 81.6516C14.5295 81.6516 10.048 77.2378 10.048 71.7931L10.048 59.3632C10.048 57.8695 10.7237 56.5306 11.7896 55.6284L24.3349 61.8574L24.3349 74.422C24.3349 77.5537 26.0787 80.3479 29.2063 81.6516Z" fill="rgb(254,163,1)" fill-rule="nonzero" />
		<path id="Vector" d="M60.4111 74.2284C57.221 74.2284 54.8801 71.2755 55.6538 68.2273L57.8988 59.3826L62.9231 59.3826L65.1681 68.2273C65.9421 71.2755 63.6012 74.2284 60.4111 74.2284Z" fill="rgb(73,85,96)" fill-rule="nonzero" />
		<path id="Vector" d="M76.6215 59.3923C76.6215 60.0726 76.3412 60.6886 75.8891 61.1339C75.437 61.5808 74.8098 61.8568 74.1192 61.8568L24.3349 61.8568L19.6272 61.0698L19.6272 52.0082L29.0678 49.4861L66.5636 49.4861C72.1188 49.4861 76.6215 53.9208 76.6215 59.3923Z" fill="rgb(255,255,255)" fill-rule="nonzero" />
		<path id="Vector" d="M22.5365 58.9454C22.5365 60.2451 23.2239 61.1865 24.3349 61.857L8.78345 61.857C7.4005 61.857 6.28099 60.7528 6.28099 59.3923C6.28099 56.6566 7.40714 54.1804 9.22711 52.3878C11.0472 50.5951 13.5612 49.4861 16.3389 49.4861L29.0677 49.4861C29.0678 49.4862 22.5365 52.12 22.5365 58.9454Z" fill="rgb(255,255,255)" fill-rule="nonzero" />
		<path id="Vector" d="M46.5591 27.2169L36.3435 27.2169C35.0022 27.2169 33.9147 26.1459 33.9147 24.8248L33.9147 22.1861C33.9147 20.865 35.0022 19.7939 36.3435 19.7939L46.5591 19.7939C47.9005 19.7939 48.9879 20.865 48.9879 22.1861L48.9879 24.8248C48.9879 26.1459 47.9005 27.2169 46.5591 27.2169Z" fill="rgb(104,162,223)" fill-rule="nonzero" />
		<g id="Group">
			<g id="Group">
				<path id="Vector" d="M27.9705 43.7347C30.7177 43.7347 32.9447 41.988 32.9447 39.8333C32.9447 37.6786 30.7177 35.9319 27.9705 35.9319C25.2234 35.9319 22.9964 37.6786 22.9964 39.8333C22.9964 41.988 25.2234 43.7347 27.9705 43.7347Z" fill="rgb(255,255,255)" fill-rule="evenodd" />
				<path id="Vector" d="M54.9319 43.7347C57.6791 43.7347 59.9061 41.988 59.9061 39.8333C59.9061 37.6786 57.6791 35.9319 54.9319 35.9319C52.1848 35.9319 49.9578 37.6786 49.9578 39.8333C49.9578 41.988 52.1848 43.7347 54.9319 43.7347Z" fill="rgb(255,255,255)" fill-rule="evenodd" />
				<path id="Vector" d="M46.2743 35.1365C45.5832 35.1365 45.0232 35.6883 45.0232 36.3687C45.0232 36.9988 44.5026 37.5116 43.8628 37.5116C43.2229 37.5116 42.7025 36.9988 42.7025 36.3687C42.7025 35.6881 42.1423 35.1365 41.4514 35.1365C40.7605 35.1365 40.2002 35.6883 40.2002 36.3687C40.2002 36.9988 39.6797 37.5116 39.0399 37.5116C38.4002 37.5116 37.8796 36.9988 37.8796 36.3687C37.8796 35.6881 37.3194 35.1365 36.6285 35.1365C35.9376 35.1365 35.3773 35.6883 35.3773 36.3687C35.3773 38.3579 37.0205 39.9761 39.0401 39.9761C39.9632 39.9761 40.8068 39.6374 41.4517 39.0805C42.0965 39.6374 42.9402 39.9761 43.8633 39.9761C45.8829 39.9761 47.5261 38.3577 47.5261 36.3687C47.5256 35.6881 46.9654 35.1365 46.2743 35.1365Z" fill="rgb(73,85,96)" fill-rule="nonzero" />
			</g>
			<g id="Group">
				<path id="Vector" d="M33.484 35.66C32.7929 35.66 32.2328 35.1082 32.2328 34.4277C32.2328 33.8601 31.7639 33.3983 31.1877 33.3983C30.6114 33.3983 30.1425 33.8601 30.1425 34.4277C30.1425 35.1084 29.5822 35.66 28.8913 35.66C28.2004 35.66 27.6402 35.1082 27.6402 34.4277C27.6402 32.5011 29.2317 30.9336 31.1878 30.9336C33.144 30.9336 34.7355 32.5011 34.7355 34.4277C34.7353 35.1082 34.1751 35.66 33.484 35.66Z" fill="rgb(73,85,96)" fill-rule="nonzero" />
			</g>
			<g id="Group">
				<path id="Vector" d="M54.0111 35.66C53.32 35.66 52.76 35.1082 52.76 34.4277C52.76 33.8601 52.291 33.3983 51.7148 33.3983C51.1385 33.3983 50.6696 33.8601 50.6696 34.4277C50.6696 35.1084 50.1094 35.66 49.4184 35.66C48.7274 35.66 48.1673 35.1082 48.1673 34.4277C48.1673 32.5011 49.7588 30.9336 51.7149 30.9336C53.6711 30.9336 55.2626 32.5011 55.2626 34.4277C55.2623 35.1082 54.7022 35.66 54.0111 35.66Z" fill="rgb(73,85,96)" fill-rule="nonzero" />
			</g>
		</g>
	</g>
</svg>
